# MagicaVoxel @ Ephtracy

# group
o 

# material
mtllib Fence.mtl
usemtl palette

# normals
vn -1 0 0
vn 1 0 0
vn 0 0 1
vn 0 0 -1
vn 0 -1 0
vn 0 1 0

# texcoords
vt 0.0917969 0.5
vt 0.306641 0.5

# verts
v -0.1 0 2.5
v -0.1 0 2.4
v -0.1 0 0.2
v -0.1 0 -1.3411e-007
v -0.1 0 -2.4
v -0.1 0 -2.5
v -0.1 4.8 2.4
v -0.1 4.8 0.2
v -0.1 4.8 -1.3411e-007
v -0.1 4.8 -2.4
v -0.1 5 2.5
v -0.1 5 0.2
v -0.1 5 -2.4
v -0.1 5 -2.5
v 0.1 0 2.5
v 0.1 0 2.4
v 0.1 0 0.2
v 0.1 0 -1.3411e-007
v 0.1 0 -2.4
v 0.1 0 -2.5
v 0.1 4.8 2.4
v 0.1 4.8 0.2
v 0.1 4.8 -1.3411e-007
v 0.1 4.8 -2.4
v 0.1 5 2.5
v 0.1 5 0.2
v 0.1 5 -2.4
v 0.1 5 -2.5
v -0.1 0 2.5
v -0.1 5 2.5
v 0.1 0 2.5
v 0.1 5 2.5
v -0.1 0 0.2
v -0.1 4.8 0.2
v 0.1 0 0.2
v 0.1 4.8 0.2
v -0.1 0 -2.4
v -0.1 4.8 -2.4
v 0.1 0 -2.4
v 0.1 4.8 -2.4
v -0.1 0 2.4
v -0.1 4.8 2.4
v 0.1 0 2.4
v 0.1 4.8 2.4
v -0.1 0 -1.3411e-007
v -0.1 4.8 -1.3411e-007
v 0.1 0 -1.3411e-007
v 0.1 4.8 -1.3411e-007
v -0.1 0 -2.5
v -0.1 5 -2.5
v 0.1 0 -2.5
v 0.1 5 -2.5
v -0.1 0 2.5
v 0.1 0 2.5
v -0.1 0 2.4
v 0.1 0 2.4
v -0.1 0 0.2
v 0.1 0 0.2
v -0.1 0 -1.3411e-007
v 0.1 0 -1.3411e-007
v -0.1 0 -2.4
v 0.1 0 -2.4
v -0.1 0 -2.5
v 0.1 0 -2.5
v -0.1 4.8 2.4
v 0.1 4.8 2.4
v -0.1 4.8 0.2
v 0.1 4.8 0.2
v -0.1 4.8 -1.3411e-007
v 0.1 4.8 -1.3411e-007
v -0.1 4.8 -2.4
v 0.1 4.8 -2.4
v -0.1 5 2.5
v 0.1 5 2.5
v -0.1 5 0.2
v 0.1 5 0.2
v -0.1 5 -2.4
v 0.1 5 -2.4
v -0.1 5 -2.5
v 0.1 5 -2.5

# faces
f 7/2/1 2/2/1 1/2/1
f 8/1/1 4/1/1 3/1/1
f 9/1/1 4/1/1 8/1/1
f 10/2/1 6/2/1 5/2/1
f 11/2/1 7/2/1 1/2/1
f 11/2/1 8/2/1 7/2/1
f 12/1/1 9/1/1 8/1/1
f 12/2/1 8/2/1 11/2/1
f 12/1/1 10/1/1 9/1/1
f 13/2/1 6/2/1 10/2/1
f 13/1/1 10/1/1 12/1/1
f 14/2/1 6/2/1 13/2/1
f 15/2/2 16/2/2 21/2/2
f 17/1/2 18/1/2 22/1/2
f 22/1/2 18/1/2 23/1/2
f 19/2/2 20/2/2 24/2/2
f 15/2/2 21/2/2 25/2/2
f 21/2/2 22/2/2 25/2/2
f 22/1/2 23/1/2 26/1/2
f 25/2/2 22/2/2 26/2/2
f 23/1/2 24/1/2 26/1/2
f 24/2/2 20/2/2 27/2/2
f 26/1/2 24/1/2 27/1/2
f 27/2/2 20/2/2 28/2/2
f 31/2/3 30/2/3 29/2/3
f 32/2/3 30/2/3 31/2/3
f 35/1/3 34/1/3 33/1/3
f 36/1/3 34/1/3 35/1/3
f 39/2/3 38/2/3 37/2/3
f 40/2/3 38/2/3 39/2/3
f 41/2/4 42/2/4 43/2/4
f 43/2/4 42/2/4 44/2/4
f 45/1/4 46/1/4 47/1/4
f 47/1/4 46/1/4 48/1/4
f 49/2/4 50/2/4 51/2/4
f 51/2/4 50/2/4 52/2/4
f 55/2/5 54/2/5 53/2/5
f 56/2/5 54/2/5 55/2/5
f 59/1/5 58/1/5 57/1/5
f 60/1/5 58/1/5 59/1/5
f 63/2/5 62/2/5 61/2/5
f 64/2/5 62/2/5 63/2/5
f 67/2/5 66/2/5 65/2/5
f 68/2/5 66/2/5 67/2/5
f 71/1/5 70/1/5 69/1/5
f 72/1/5 70/1/5 71/1/5
f 73/2/6 74/2/6 75/2/6
f 75/2/6 74/2/6 76/2/6
f 75/1/6 76/1/6 77/1/6
f 77/1/6 76/1/6 78/1/6
f 77/2/6 78/2/6 79/2/6
f 79/2/6 78/2/6 80/2/6
